/* XPM */
static char *c3671d4bbdbb4396df39aa01043b7e73MLET7As1VhezODnC[] = {
/* columns rows colors chars-per-pixel */
"50 50 9 1 ",
"  c #211F33",
". c #44273B",
"X c #653830",
"o c #509B66",
"O c #404074",
"+ c #8E553A",
"@ c #5ECCE3",
"# c #CADAFB",
"$ c #FEFEFE",
/* pixels */
"oooooooooooooooooooooooooooooooooooooooooooooooooo",
"oooooooooooooooooooooooooooooooooooooooooooooooooo",
"oooooooooooooooooooooooooooooooooooooooooooooooooo",
"oooooooooooooooooooooooooooooooooooooooooooooooooo",
"oooooooooooooooooooooooooooooooooooooooooooooooooo",
"oooooooooooooooooooooooooooooooooooooooooooooooooo",
"oooooooooooooooooooooooooooooooooooooooooooooooooo",
"oooooooooooooooooooooooooooooooooooooooooooooooooo",
"oooooooooooooooooooooooooooooooooooooooooooooooooo",
"oooooooooooooooooooooooooooooooooooooooooooooooooo",
"oooooooooooooooooooooooooooooooooooooooooooooooooo",
"oooooooooooooooooooooooooooooooooooooooooooooooooo",
"oooooooooooooooooooooooooooooooooooooooooooooooooo",
"oooooooooooooooooooooooooooooooooooooooooooooooooo",
"oooooooooooooooooooooooooooooooooooooooooooooooooo",
"ooooooooooooo    ooooooooooooooooooooooooooooooooo",
"ooooooooooooo    ooooooooooooooooooooooooooooooooo",
"ooooooooooooo    ooooooooooooooooooooooooooooooooo",
"ooooooooooooo    ooooooooooooooooooooooooooooooooo",
"ooooo        ++++                            ooooo",
"ooooo        ++++                            ooooo",
"ooooo        ++++                            ooooo",
"ooooo        ++++                            ooooo",
"o    ++++XXXXXXXX@@@@####$$$$$$$$$$$$$$$$$$$$    o",
"o    ++++XXXXXXXX@@@@####$$$$$$$$$$$$$$$$$$$$    o",
"o    ++++XXXXXXXX@@@@####$$$$$$$$$$$$$$$$$$$$    o",
"o    ++++XXXXXXXX@@@@####$$$$$$$$$$$$$$$$$$$$    o",
"ooooo        ....                            ooooo",
"ooooo        ....                            ooooo",
"ooooo        ....                            ooooo",
"ooooo        ....                            ooooo",
"ooooooooooooo    ooooooooooooooooooooooooooooooooo",
"ooooooooooooo    ooooooooooooooooooooooooooooooooo",
"ooooooooooooo    ooooooooooooooooooooooooooooooooo",
"ooooooooooooo    ooooooooooooooooooooooooooooooooo",
"oooooooooooooooooooooooooooooooooooooooooooooooooo",
"oooooooooooooooooooooooooooooooooooooooooooooooooo",
"oooooooooooooooooooooooooooooooooooooooooooooooooo",
"oooooooooooooooooooooooooooooooooooooooooooooooooo",
"oooooooooooooooooooooooooooooooooooooooooooooooooo",
"oooooooooooooooooooooooooooooooooooooooooooooooooo",
"oooooooooooooooooooooooooooooooooooooooooooooooooo",
"oooooooooooooooooooooooooooooooooooooooooooooooooo",
"oooooooooooooooooooooooooooooooooooooooooooooooooo",
"oooooooooooooooooooooooooooooooooooooooooooooooooo",
"oooooooooooooooooooooooooooooooooooooooooooooooooo",
"oooooooooooooooooooooooooooooooooooooooooooooooooo",
"oooooooooooooooooooooooooooooooooooooooooooooooooo",
"oooooooooooooooooooooooooooooooooooooooooooooooooo",
"oooooooooooooooooooooooooooooooooooooooooooooooooo",
};
