/* XPM */
static char *_856e54b64214cb193a98b4e59d52c2eI5wDqCe55aIoVml8[] = {
/* columns rows colors chars-per-pixel */
"50 50 9 1 ",
"  c None",
". c black",
"X c #21110D",
"o c #342319",
"O c #503625",
"+ c #755338",
"@ c #D99945",
"# c #E9CE7C",
"$ c #677598",
/* pixels */
"$XXXXXXXXXXXXXXXXXXXXXXXXXXXXXXXXXXXXXXXXXXXXXXXX$",
"XXXXX++++++++++++++++++++++++++++++++++++++++XXXXX",
"XXXXX++++++++++++++++++++++++++++++++++++++++XXXXX",
"XXXXXOOOOOooooooooooooooooooooooooooooooOOOOOXXXXX",
"XXXXX+++++oOOoOOOOOOOooOOOOOOOOOOOOOOOoo+++++XXXXX",
"XXXXX+++++oOOoOOOOOOOooOOOOOOOOOOOOOOOoo+++++XXXXX",
"XXXXX+++++oOOoOOOOOOOooOOOOOOOOOOooOOOoo+++++XXXXX",
"XXXXX+++++oOOOOOOOOOOooOOOOOOOOOOooOOOoo+++++XXXXX",
"XXXXX+++++oOOOOOOOOOOooOOOOOOOOOOooOOOoo+++++XXXXX",
"XXXXX+++++oOOOOOOOOOOooOOOOOOOOOOooOOOoo+++++XXXXX",
"XXXXX+++++oOOOOOOOOOOooOOOOOOOOOOooOOOoo+++++XXXXX",
"XXXXX+++++oOOOOOOOOOOooOOOOOOOOOOooOOOoo+++++XXXXX",
"XXXXX+++++oOOOOOOOOOOooOOOOOOOOOOooOOOoo+++++XXXXX",
"XXXXX+++++oOOOOOOOOOOooOOOOOOOOOOooOOOoo+++++XXXXX",
"XXXXX+++++oOOOOOOOOOOooOOOOOOOOOOOOOOOoo+++++XXXXX",
"XXXXX+++++oOOOOOOOOOOooOOOOOOOOOOOOOOOoo+++++XXXXX",
"XXXXX+++++oOOOOOOOOOOooOOOOOOOOOOOOOOOoo+++++XXXXX",
"XXXXX+++++oOOOOOOOOOOooOOOOOOOOOOOOOOOoo+++++XXXXX",
"XXXXX+++++oOOOOOOOOOOooOOOOOOOOOOOOOOOoo+++++XXXXX",
"XXXXX+++++oOOOOOOOOOOooOOOOOOOOOOOOOOOoo+++++XXXXX",
"XXXXX+++++oOOOOOOOOOOOOOOOOOOOOOOOOOOOoo+++++XXXXX",
"XXXXX+++++oOOOOOOOOOOOOOOOOOOOOOOOOOOOoo+++++XXXXX",
"XXXXX+++++oOOOOOOOOOOOOOOOOOOOOOOOOOOOoo+++++XXXXX",
"XXXXX+++++oOOOOOOOOOOOOOOOOOOOOOOOOOOOoo+++++XXXXX",
"XXXXX+++++oOOOOOOOOOOOOOOOOOOOOOOOOOOOoo+++++XXXXX",
"XXXXX+++++oOOOOOOOOOOOOOOOOOOOO###@@@Ooo+++++XXXXX",
"XXXXX+++++oOOOOOOOOOOOOOOOOOOOO@@@@@@Ooo+++++XXXXX",
"XXXXX+++++oOOOOOOOOOOOOOOOOOOOO@@@@@@Ooo+++++XXXXX",
"XXXXX+++++oOOoOOOOOOOOOOOOOOOOOOOOOOOOoo+++++XXXXX",
"XXXXX+++++oOOoOOOOOOOOOOOOOOOOOOOOOOOOoo+++++XXXXX",
"XXXXX+++++oOOoOOOOOOOOOOoOOOOOOOOOOOOOoo+++++XXXXX",
"XXXXX+++++oOOoOOOOOOOOOOoOOOOOOOOOOOOOoo+++++XXXXX",
"XXXXX+++++oOOoOOOOOOOOOOoOOOOOOOOOOOOOoo+++++XXXXX",
"XXXXX+++++oOOoOOOOOOOOOOoOOOOOOOOOOOOOoo+++++XXXXX",
"XXXXX+++++oOOoOOOOOOOOOOoOOOOOOOOOOOOOoo+++++XXXXX",
"XXXXX+++++oOOoOOOOOOOOOOoOOOOOOOOOOOOOoo+++++XXXXX",
"XXXXX+++++oOOoOOOOOOOOOOoOOOOOOOOOOOOOoo+++++XXXXX",
"XXXXX+++++oOOoOOOOOOOOOOoOOOOOOOOOOOOOoo+++++XXXXX",
"XXXXX+++++oOOoOOOOOOOOOOOOOOOOOOOOOOOOoo+++++XXXXX",
"XXXXX+++++oOOoOOOOOOOOOOOOOOOOOOOOOOOOoo+++++XXXXX",
"XXXXX+++++oOOoOOOOooOOOOOOOOOOOOOOOOOOoo+++++XXXXX",
"XXXXX+++++oOOoOOOOooOOOOOOOOOOOOOOOOOOoo+++++XXXXX",
"XXXXX+++++oOOoOOOOooOOOOOOOOOOOOOOOOOOoo+++++XXXXX",
"XXXXX+++++oOOoOOOOooOOOOOOOOOOOOOOOOOOoo+++++XXXXX",
"XXXXX+++++oOOoOOOOooOOOOOOOOOOOOOOoOOOoo+++++XXXXX",
"XXXXX+++++oOOoOOOOooOOOOOOOOOOOOOOoOOOoo+++++XXXXX",
"XXXXX+++++oOOoOOOOooOOOOOOOOOOOOOOoOOOoo+++++XXXXX",
"XXXXX+++++oOOoOOOOooOOOOOOOOOOOOOOoOOOoo+++++XXXXX",
"XXXXX+++++oOOoOOOOooOOOOOOOOOOOOOOoOOOoo+++++XXXXX",
"XXXXX+++++..............................+++++XXXXX",
};
