/* XPM */
static char *_856e54b64214cb193a98b4e59d52c2eI5wDqCe55aIoVml8[] = {
/* columns rows colors chars-per-pixel */
"50 50 7 1 ",
"  c None",
". c black",
"X c #21110D",
"o c #342319",
"O c #503625",
"+ c #755338",
"$ c #677598",
/* pixels */
"$XXXXXXXXXXXXXXXXXXXXXXXXXXXXXXXXXXXXXXXXXXXXXXXX$",
"XXXXX++++++++++++++++++++++++++++++++++++++++XXXXX",
"XXXXX++++++++++++++++++++++++++++++++++++++++XXXXX",
"XXXXXOOOOOooooooooooooooooooooooooooooooOOOOOXXXXX",
"XXXXX+++++oOO...........................+++++XXXXX",
"XXXXX+++++oOO...........................+++++XXXXX",
"XXXXX+++++oOO...........................+++++XXXXX",
"XXXXX+++++oOO...........................+++++XXXXX",
"XXXXX+++++oOO...........................+++++XXXXX",
"XXXXX+++++oOO...........................+++++XXXXX",
"XXXXX+++++oOO...........................+++++XXXXX",
"XXXXX+++++oOO...........................+++++XXXXX",
"XXXXX+++++oOO...........................+++++XXXXX",
"XXXXX+++++oOO...........................+++++XXXXX",
"XXXXX+++++oOO...........................+++++XXXXX",
"XXXXX+++++oOO...........................+++++XXXXX",
"XXXXX+++++oOO...........................+++++XXXXX",
"XXXXX+++++oOO...........................+++++XXXXX",
"XXXXX+++++oOO...........................+++++XXXXX",
"XXXXX+++++oOO...........................+++++XXXXX",
"XXXXX+++++oOO...........................+++++XXXXX",
"XXXXX+++++oOO...........................+++++XXXXX",
"XXXXX+++++oOO...........................+++++XXXXX",
"XXXXX+++++oOO...........................+++++XXXXX",
"XXXXX+++++oOO...........................+++++XXXXX",
"XXXXX+++++oOO...........................+++++XXXXX",
"XXXXX+++++oOO...........................+++++XXXXX",
"XXXXX+++++oOO...........................+++++XXXXX",
"XXXXX+++++oOO...........................+++++XXXXX",
"XXXXX+++++oOO...........................+++++XXXXX",
"XXXXX+++++oOO...........................+++++XXXXX",
"XXXXX+++++oOO...........................+++++XXXXX",
"XXXXX+++++oOO...........................+++++XXXXX",
"XXXXX+++++oOO...........................+++++XXXXX",
"XXXXX+++++oOO...........................+++++XXXXX",
"XXXXX+++++oOO...........................+++++XXXXX",
"XXXXX+++++oOO...........................+++++XXXXX",
"XXXXX+++++oOO...........................+++++XXXXX",
"XXXXX+++++oOO...........................+++++XXXXX",
"XXXXX+++++oOO...........................+++++XXXXX",
"XXXXX+++++oOO...........................+++++XXXXX",
"XXXXX+++++oOO...........................+++++XXXXX",
"XXXXX+++++oOO...........................+++++XXXXX",
"XXXXX+++++oOO...........................+++++XXXXX",
"XXXXX+++++oOO...........................+++++XXXXX",
"XXXXX+++++oOO...........................+++++XXXXX",
"XXXXX+++++oOO...........................+++++XXXXX",
"XXXXX+++++oOO...........................+++++XXXXX",
"XXXXX+++++oOO...........................+++++XXXXX",
"XXXXX+++++..............................+++++XXXXX",
};
