/* XPM */
static char *b5d1e200232143c79a2521b987c555a4HY9iLS1m9lTewWXH[] = {
/* columns rows colors chars-per-pixel */
"50 50 7 1 ",
"  c #509B66",
". c black",
"X c gray20",
"o c #8F563B",
"O c #D95763",
"+ c #EEC39A",
"@ c blue",
/* pixels */
"                                                  ",
"                                                  ",
"                                                  ",
"                                                  ",
"                oooooooooooooooooo                ",
"               oooooooooooooooooooo               ",
"              oooooooooooooooooooooo              ",
"              oooooooooooooooooooooo              ",
"              oooooooooooooooooooooo              ",
"              oooooooooooooooooooooo              ",
"              oooooooooooooooooooooo              ",
"              oooooooooooooooooooooo              ",
"              oooooooooooooooooooooo              ",
"                +oooooooooooooooo+                ",
"                 +oooooooooooooo+                 ",
"                 +oooooooooooooo+                 ",
"                  +oooooooooooo+                  ",
"                   +oooooooooo+                   ",
"                    ++++++++++                    ",
"                     ++++++++                     ",
"                XXXXXXXXXXXXXXXXXX                ",
"                XXXXXXXXXXXXXXXXXX                ",
"                XXXXXXXXXXXXXXXXXX                ",
"                XXXXXXXXXXXXXXXXXX                ",
"                XXXXXXXXXXXXXXXXXX                ",
"                XXXXXXXXXXXXXXXXXX                ",
"                ++++XXXXXXXXXX++++                ",
"                ++++XXXXXXXXXX++++                ",
"                ++++XXXXXXXXXX++++                ",
"                ++++XXXXXXXXXX++++                ",
"                ++++XXXXXXXXXX++++                ",
"                ++++XXXXXXXXXX++++                ",
"                ++++XXXXXXXXXX++++                ",
"                ++++XXXXXXXXXX++++                ",
"                    @@@@  @@@@                    ",
"                    @@@@  @@@@                    ",
"                    @@@@  @@@@                    ",
"                    @@@@  @@@@                    ",
"                    @@@@  @@@@                    ",
"                    @@@@  @@@@                    ",
"                    @@@@  @@@@                    ",
"                    @@@@  @@@@                    ",
"                    @@@@  @@@@                    ",
"                    @@@@  @@@@                    ",
"                    @@@@  @@@@                    ",
"                    @@@@  @@@@                    ",
"                   .....  .....                   ",
"                   .....  .....                   ",
"                                                  ",
"                                                  "
};