/* XPM */
static char *b5d1e200232143c79a2521b987c555a4HY9iLS1m9lTewWXH[] = {
/* columns rows colors chars-per-pixel */
"50 50 8 1 ",
"  c None",
". c black",
"X c gray20",
"o c #8F563B",
"O c #D95763",
"+ c #EEC39A",
"@ c blue",
": c gray85",
/* pixels */
"                                                  ",
"                                                  ",
"                                                  ",
"                                                  ",
"                oooooooooooooooooo                ",
"               oooooooooooooooooooo               ",
"              oooooooooooooooooooooo              ",
"              oooooooooooooooooooooo              ",
"              oo++++++++++++++++++oo              ",
"              oo++++++++++++++++++oo              ",
"              oo++++...++++...++++oo              ",
"              oo++++...++++...++++oo              ",
"              oo++++++++++++++++++oo              ",
"                ++++++++++++++++++                ",
"                 +++++OOOOO++++++                 ",
"                 +++++OOOOO++++++                 ",
"                  ++++++++++++++                  ",
"                   ++++++++++++                   ",
"                    ++++++++++                    ",
"                     ++++++++                     ",
"                XXXXXX++++++XXXXXX                ",
"                XXXXXX++++++XXXXXX                ",
"                XXXXXXXXXXXXXXXXXX                ",
"                XXXXX:XX:X:::XXXXX                ",
"                XXXXX:XX:XXX:XXXXX                ",
"                XXXXX::::XX:XXXXXX                ",
"                ++++XXXX:X:XXX++++                ",
"                ++++XXXX:X:::X++++                ",
"                ++++XXXXXXXXXX++++                ",
"                ++++XXXXXXXXXX++++                ",
"                ++++XXXXXXXXXX++++                ",
"                ++++XXXXXXXXXX++++                ",
"                ++++XXXXXXXXXX++++                ",
"                ++++XXXXXXXXXX++++                ",
"                    @@@@  @@@@                    ",
"                    @@@@  @@@@                    ",
"                    @@@@  @@@@                    ",
"                    @@@@  @@@@                    ",
"                    @@@@  @@@@                    ",
"                    @@@@  @@@@                    ",
"                    @@@@  @@@@                    ",
"                    @@@@  @@@@                    ",
"                    @@@@  @@@@                    ",
"                    @@@@  @@@@                    ",
"                    @@@@  @@@@                    ",
"                    @@@@  @@@@                    ",
"                   .....  .....                   ",
"                   .....  .....                   ",
"                                                  ",
"                                                  "
};